{
	"asset":{
		"generator":"Khronos glTF Blender I/O v3.6.27",
		"version":"2.0"
	},
	"extensionsUsed":[
		"KHR_materials_unlit"
	],
	"scene":0,
	"scenes":[
		{
			"name":"Scene",
			"nodes":[
				1
			]
		}
	],
	"nodes":[
		{
			"mesh":0,
			"name":"node_id3",
			"rotation":[
				-0.7071068286895752,
				0,
				0,
				0.7071068286895752
			],
			"scale":[
				0.0068214829079806805,
				0.0068214829079806805,
				0.006821481976658106
			]
		},
		{
			"children":[
				0
			],
			"name":"root",
			"scale":[
				9.69867992401123,
				9.69867992401123,
				9.69867992401123
			]
		}
	],
	"materials":[
		{
			"doubleSided":true,
			"extensions":{
				"KHR_materials_unlit":{}
			},
			"name":"wood",
			"pbrMetallicRoughness":{
				"baseColorTexture":{
					"index":0,
					"texCoord":0
				},
				"metallicFactor":0,
				"roughnessFactor":0.9
			}
		}
	],
	"meshes":[
		{
			"name":"mesh_id4",
			"primitives":[
				{
					"attributes":{
						"COLOR_0":0,
						"POSITION":1,
						"NORMAL":2,
						"TEXCOORD_0":3,
						"TANGENT":4
					},
					"indices":5,
					"material":0
				}
			]
		}
	],
	"textures":[
		{
			"sampler":0,
			"source":0
		}
	],
	"images":[
		{
			"bufferView":6,
			"mimeType":"image/jpeg",
			"name":"Wood086_1K_Color"
		}
	],
	"accessors":[
		{
			"bufferView":0,
			"componentType":5123,
			"count":2416,
			"normalized":true,
			"type":"VEC4"
		},
		{
			"bufferView":1,
			"componentType":5126,
			"count":2416,
			"max":[
				38.00532531738281,
				9.282794952392578,
				16.559741973876953
			],
			"min":[
				-37.05167770385742,
				-11.017204284667969,
				0.05974113196134567
			],
			"type":"VEC3"
		},
		{
			"bufferView":2,
			"componentType":5126,
			"count":2416,
			"type":"VEC3"
		},
		{
			"bufferView":3,
			"componentType":5126,
			"count":2416,
			"type":"VEC2"
		},
		{
			"bufferView":4,
			"componentType":5126,
			"count":2416,
			"type":"VEC4"
		},
		{
			"bufferView":5,
			"componentType":5123,
			"count":2574,
			"type":"SCALAR"
		}
	],
	"bufferViews":[
		{
			"buffer":0,
			"byteLength":19328,
			"byteOffset":0,
			"target":34962
		},
		{
			"buffer":0,
			"byteLength":28992,
			"byteOffset":19328,
			"target":34962
		},
		{
			"buffer":0,
			"byteLength":28992,
			"byteOffset":48320,
			"target":34962
		},
		{
			"buffer":0,
			"byteLength":19328,
			"byteOffset":77312,
			"target":34962
		},
		{
			"buffer":0,
			"byteLength":38656,
			"byteOffset":96640,
			"target":34962
		},
		{
			"buffer":0,
			"byteLength":5148,
			"byteOffset":135296,
			"target":34963
		},
		{
			"buffer":0,
			"byteLength":647418,
			"byteOffset":140444
		}
	],
	"samplers":[
		{
			"magFilter":9729,
			"minFilter":9987
		}
	],
	"buffers":[
		{
			"byteLength":787864,
			"uri":"data:application/octet-stream;base64,"
		}
	]
}
